<svg width="30" height="30" viewBox="0 0 30 30" fill="none" xmlns="http://www.w3.org/2000/svg">
<g clip-path="url(#clip0_32_94)">
<path fill-rule="evenodd" clip-rule="evenodd" d="M15 0C23.2845 0 30 6.92469 30 15.4683C30 22.3011 25.707 28.0974 19.7505 30.1447C18.99 30.2971 18.72 29.814 18.72 29.4021C18.72 28.8922 18.738 27.2267 18.738 25.1568C18.738 23.7145 18.258 22.7732 17.7195 22.2934C21.06 21.9102 24.57 20.6021 24.57 14.6609C24.57 12.9712 23.988 11.5924 23.025 10.5091C23.181 10.1184 23.6955 8.54504 22.878 6.4148C22.878 6.4148 21.621 6.00032 18.7575 8.00082C17.559 7.65835 16.275 7.48604 15 7.48C13.725 7.48604 12.4425 7.65835 11.2455 8.00082C8.379 6.00032 7.119 6.4148 7.119 6.4148C6.3045 8.54504 6.819 10.1184 6.9735 10.5091C6.015 11.5924 5.4285 12.9712 5.4285 14.6609C5.4285 20.587 8.931 21.9152 12.2625 22.3059C11.8335 22.6922 11.445 23.3735 11.31 24.3737C10.455 24.769 8.283 25.4531 6.945 23.089C6.945 23.089 6.1515 21.6028 4.6455 21.4941C4.6455 21.4941 3.183 21.4746 4.5435 22.4341C4.5435 22.4341 5.526 22.9093 6.2085 24.6971C6.2085 24.6971 7.089 27.4579 11.262 26.5225C11.2695 27.8155 11.283 29.034 11.283 29.4021C11.283 29.811 11.007 30.2895 10.2585 30.1462C4.2975 28.1019 0 22.3026 0 15.4683C0 6.92469 6.717 0 15 0Z" fill="white"/>
</g>
<defs>
<clipPath id="clip0_32_94">
<rect width="30" height="30" fill="white"/>
</clipPath>
</defs>
</svg>
