<svg width="30" height="30" viewBox="0 0 30 30" fill="none" xmlns="http://www.w3.org/2000/svg">
<g clip-path="url(#clip0_46_88)">
<path d="M21.0623 0H8.93768C6.56781 0.00180589 4.29553 0.944032 2.61978 2.61978C0.944032 4.29553 0.00180589 6.56781 0 8.93768V21.0623C0.00144472 23.4324 0.943511 25.7051 2.6193 27.3811C4.29509 29.0571 6.56758 29.9996 8.93768 30.0014H21.0623C23.4323 29.9992 25.7046 29.0567 27.3803 27.3807C29.056 25.7047 29.9982 23.4323 30 21.0623V8.93768C29.9989 6.56759 29.0569 4.29489 27.381 2.61898C25.7051 0.943078 23.4324 0.00108413 21.0623 0ZM26.9835 21.0623C26.9831 22.6326 26.3592 24.1385 25.2488 25.2488C24.1385 26.3592 22.6326 26.9831 21.0623 26.9835H8.93768C8.16016 26.9835 7.39026 26.8303 6.67195 26.5327C5.95363 26.2352 5.30098 25.799 4.75126 25.2491C4.20153 24.6993 3.76551 24.0465 3.46809 23.3282C3.17067 22.6098 3.01769 21.8398 3.01786 21.0623V8.93768C3.01769 8.16023 3.17068 7.39036 3.46812 6.67205C3.76555 5.95374 4.2016 5.30108 4.75134 4.75134C5.30108 4.2016 5.95375 3.76555 6.67205 3.46812C7.39036 3.17068 8.16023 3.01768 8.93768 3.01786H21.0623C22.6322 3.01823 24.1378 3.64203 25.2479 4.75214C26.358 5.86224 26.9818 7.36776 26.9821 8.93768L26.9835 21.0623Z" fill="white" stroke="white"/>
<path d="M15.0018 7.24395C10.7225 7.24395 7.24512 10.7227 7.24512 15.0007C7.24512 19.2786 10.7239 22.7574 15.0018 22.7574C19.2798 22.7574 22.7585 19.2786 22.7585 15.0007C22.7585 10.7227 19.2811 7.24395 15.0018 7.24395ZM15.0018 19.7395C13.745 19.7397 12.5396 19.2406 11.6508 18.352C10.7619 17.4634 10.2625 16.2582 10.2623 15.0013C10.2621 13.7445 10.7612 12.5391 11.6498 11.6503C12.5384 10.7614 13.7436 10.262 15.0005 10.2618C16.2573 10.2616 17.4627 10.7607 18.3515 11.6493C19.2404 12.5379 19.7398 13.7432 19.74 15C19.7402 16.2568 19.2411 17.4622 18.3525 18.3511C17.4639 19.2399 16.2587 19.7393 15.0018 19.7395ZM22.7749 5.4425C23.1424 5.44277 23.5016 5.55198 23.8071 5.75632C24.1125 5.96067 24.3505 6.25097 24.491 6.59055C24.6316 6.93013 24.6683 7.30375 24.5965 7.66418C24.5247 8.02461 24.3477 8.35567 24.0879 8.61554C23.828 8.8754 23.4969 9.0524 23.1365 9.12416C22.7761 9.19593 22.4025 9.15923 22.0629 9.01872C21.7233 8.87821 21.433 8.64018 21.2286 8.33473C21.0243 8.02927 20.9151 7.67009 20.9148 7.30259C20.9148 6.27709 21.6103 5.4425 22.7749 5.4425Z" fill="white" stroke="white"/>
</g>
<defs>
<clipPath id="clip0_46_88">
<rect width="30" height="30" fill="white"/>
</clipPath>
</defs>
</svg>
