<svg width="29" height="30" viewBox="0 0 29 30" fill="none" xmlns="http://www.w3.org/2000/svg">
<g clip-path="url(#clip0_32_70)">
<path d="M26.5994 0.00269065H1.56869C1.24607 -0.0124215 0.923612 0.0362341 0.619813 0.1459C0.316014 0.255567 0.0368328 0.424068 -0.201774 0.641751C-0.440362 0.859452 -0.633689 1.12208 -0.770655 1.41457C-0.907621 1.70708 -0.985563 2.02373 -1 2.34639V27.4334C-0.9811 28.1085 -0.704395 28.7511 -0.226712 29.2286C0.250971 29.7064 0.893406 29.9831 1.56869 30.0021H26.5994C27.2558 29.9728 27.8747 29.6874 28.3234 29.2073C28.7721 28.7271 29.0147 28.0903 28.9993 27.4334V2.34639C29.0047 2.03233 28.9459 1.72051 28.8264 1.43C28.707 1.13951 28.5294 0.876477 28.3046 0.657013C28.08 0.437568 27.8128 0.266348 27.5196 0.153831C27.2264 0.0413153 26.9132 -0.0101153 26.5994 0.00269065ZM8.37478 25.0147H4.00613V11.6462H8.37478V25.0147ZM6.29358 9.62122C5.98873 9.63185 5.68497 9.57931 5.4014 9.46693C5.11782 9.35454 4.86053 9.18473 4.64574 8.96815C4.43092 8.75158 4.26321 8.49293 4.15315 8.20844C4.04307 7.92395 3.99303 7.61978 4.00613 7.31502C3.99265 7.00697 4.04371 6.69951 4.15604 6.41236C4.26837 6.12519 4.43947 5.86469 4.65838 5.64755C4.8773 5.43039 5.13917 5.2614 5.42722 5.15142C5.71529 5.04141 6.02316 4.99285 6.33108 5.00883C6.63593 4.99821 6.93969 5.05073 7.22326 5.16312C7.50685 5.2755 7.76413 5.44532 7.97892 5.66189C8.19374 5.87847 8.36145 6.13712 8.47151 6.42161C8.58159 6.70609 8.63163 7.01027 8.61853 7.31502C8.63201 7.62308 8.58095 7.93053 8.46863 8.21768C8.3563 8.50485 8.18519 8.76536 7.96629 8.9825C7.74737 9.19966 7.48549 9.36864 7.19744 9.47863C6.90937 9.58863 6.60151 9.63719 6.29358 9.62122ZM24.0119 25.0147H19.6245V17.7023C19.6245 15.9586 19.0058 14.7587 17.4496 14.7587C16.9662 14.7628 16.4958 14.9163 16.1032 15.1983C15.7104 15.4803 15.4145 15.8769 15.2559 16.3336C15.134 16.676 15.083 17.0395 15.1059 17.4023V25.0147H10.7935V11.6462H15.1059V13.5212C15.4893 12.8168 16.0599 12.2322 16.7547 11.8317C17.4496 11.4314 18.2416 11.2309 19.0433 11.2524C21.8745 11.2524 24.0119 13.1274 24.0119 17.1211V25.0147Z" fill="white"/>
</g>
<defs>
<clipPath id="clip0_32_70">
<rect width="29" height="30" fill="white"/>
</clipPath>
</defs>
</svg>
