<svg width="30" height="30" viewBox="0 0 30 30" fill="none" xmlns="http://www.w3.org/2000/svg">
<path d="M27 3H3C2.20435 3 1.44129 3.31607 0.87868 3.87868C0.31607 4.44129 0 5.20435 0 6V24C0 24.7956 0.31607 25.5587 0.87868 26.1213C1.44129 26.6839 2.20435 27 3 27H27C27.7956 27 28.5587 26.6839 29.1213 26.1213C29.6839 25.5587 30 24.7956 30 24V6C30 5.20435 29.6839 4.44129 29.1213 3.87868C28.5587 3.31607 27.7956 3 27 3ZM27 10.05L15 18.051L3 10.05V6.4455L15 14.445L27 6.4455V10.05Z" fill="white"/>
</svg>
