<svg width="30" height="30" viewBox="0 0 30 30" fill="none" xmlns="http://www.w3.org/2000/svg">
<g clip-path="url(#clip0_32_89)">
<path fill-rule="evenodd" clip-rule="evenodd" d="M3.4884 14.7151C3.4884 8.13618 8.79851 2.80288 15.3488 2.80288C21.8992 2.80288 27.2093 8.13618 27.2093 14.7151C27.2093 21.2941 21.8992 26.6274 15.3488 26.6274C13.0155 26.6274 10.8436 25.9522 9.01114 24.786C8.6701 24.5691 8.25221 24.5111 7.86536 24.627L3.84794 25.8312L5.36056 22.2763C5.53934 21.8562 5.50296 21.3749 5.26308 20.9867C4.13819 19.1661 3.4884 17.019 3.4884 14.7151ZM15.3488 0C7.25725 0 0.697704 6.58819 0.697704 14.7151C0.697704 17.2911 1.3579 19.7159 2.51812 21.8242L0.112286 27.4781C-0.100396 27.978 -0.00612359 28.5562 0.354169 28.9618C0.714462 29.3675 1.2758 29.5273 1.79441 29.3717L8.07267 27.49C10.2174 28.7247 12.7028 29.4303 15.3488 29.4303C23.4405 29.4303 30 22.8421 30 14.7151C30 6.58819 23.4405 0 15.3488 0ZM18.5477 17.7736L16.7139 19.071C15.8551 18.5796 14.9055 17.8938 13.9531 16.9371C12.9629 15.9427 12.2289 14.916 11.6876 13.9742L12.853 12.9807C13.3531 12.5544 13.49 11.8356 13.1819 11.254L11.697 8.45109C11.497 8.07367 11.1365 7.80856 10.7179 7.73111C10.2993 7.65368 9.86834 7.7724 9.54763 8.05351L9.10739 8.43941C8.04869 9.36744 7.42256 10.8924 7.9415 12.4365C8.47951 14.0373 9.62767 16.5566 11.9798 18.919C14.5104 21.4607 17.0809 22.4616 18.5841 22.8504C19.7953 23.1635 20.9414 22.7437 21.749 22.0828L22.5744 21.4073C22.9274 21.1185 23.1179 20.6746 23.0847 20.2185C23.0513 19.7623 22.7985 19.3511 22.4072 19.1169L20.0654 17.7155C19.5924 17.4325 18.998 17.4552 18.5477 17.7736Z" fill="white"/>
</g>
<defs>
<clipPath id="clip0_32_89">
<rect width="30" height="30" fill="white"/>
</clipPath>
</defs>
</svg>
